<svg version="1.1" xmlns="http://www.w3.org/2000/svg" style="display: block;" viewBox="0 0 2048 2048" width="1024" height="1024">
<path transform="translate(0,0)" fill="rgb(255,255,255)" d="M 0 0 L 2048 0 L 2048 2048 L 0 2048 L 0 0 z"/>
<path transform="translate(0,0)" fill="rgb(90,122,90)" d="M 900.673 628.513 C 913.943 619.982 938.255 613.728 953.857 617.041 C 956.597 617.623 958.439 618.581 960.366 620.646 C 961.785 631.464 959.421 642.486 960.189 653.337 C 962.413 684.777 967.055 716.492 970.903 747.778 C 972.731 762.641 974.251 777.808 977.363 792.459 C 979.832 804.079 984.536 816.296 985.352 828.118 C 986.031 837.977 983.744 848.147 984.094 858.105 C 985.122 887.309 988.492 916.76 990.953 945.874 C 993.885 980.564 994.187 1017.64 1004.52 1051.05 C 1004.71 1028.44 1005.51 1005.68 1004.05 983.107 C 1003.66 977.168 999.41 958.366 1000.01 954.578 C 1008.73 946.918 1026.19 947.882 1037.22 948.537 C 1048.83 949.228 1059.86 951.278 1070.72 955.442 C 1061.21 993.149 1061.18 1031.8 1060.39 1070.46 C 1059.85 1096.86 1059.14 1123.39 1060.09 1149.78 C 1060.21 1149.37 1060.34 1148.97 1060.45 1148.56 C 1065.27 1131.66 1068.47 1108.77 1069.3 1091.31 C 1069.64 1084.32 1068.37 1076.76 1069.33 1069.93 C 1069.82 1066.43 1073.05 1067.01 1073.36 1062.41 C 1074.16 1050.43 1081.29 1036.73 1084.56 1024.98 C 1092.26 997.277 1098.91 969.212 1106.31 941.411 C 1110.47 925.761 1115.14 910.07 1118.06 894.138 C 1119.94 883.869 1119.54 870.813 1122.83 861.248 C 1123.21 861.066 1123.59 860.892 1123.97 860.702 C 1125.18 860.088 1126.04 859.487 1127.07 858.625 C 1126.35 857.249 1125.66 855.856 1125 854.445 C 1128.62 845.332 1134.05 836.937 1137.82 827.809 C 1148.1 802.922 1156.75 777.297 1166.1 752.048 C 1174.37 729.709 1183.43 707.731 1190.69 685.025 C 1192.19 680.323 1193.84 675.514 1194.72 670.649 C 1195.44 666.681 1195.43 661.831 1196.8 658.079 C 1197.52 656.124 1198.33 654.912 1200.44 654.328 C 1209.26 651.896 1236.72 664.165 1243.93 669.619 C 1247.34 672.202 1249.83 674.88 1250.89 679.07 C 1250.15 685.65 1242.94 692.249 1239.69 698.015 C 1237.18 702.468 1235.15 707.347 1233.08 712.019 C 1217.52 747.149 1204.31 783.905 1191.9 820.245 C 1186.15 837.11 1182.08 854.157 1178.04 871.493 C 1177.08 875.64 1178.67 877.744 1177.78 880.284 C 1175.27 887.412 1169.99 893.701 1167.35 900.905 C 1161.17 917.783 1156.83 935.638 1152.24 953 C 1145.01 979.353 1138.63 1005.93 1133.11 1032.7 C 1129.94 1048.65 1130.04 1065.11 1126.83 1080.84 C 1124.87 1090.43 1119.56 1099.13 1117.41 1108.72 C 1111.26 1136.2 1107.3 1164.68 1103.46 1192.56 C 1100.56 1213.6 1097.36 1234.71 1095.65 1255.88 C 1095.16 1261.92 1094.76 1267.98 1095.08 1274.04 C 1095.4 1280.16 1096.84 1287.42 1095.95 1293.45 C 1094.34 1304.43 1090.12 1315.06 1088.43 1326.12 C 1083.52 1358.3 1082.57 1396.44 1082.21 1429.09 C 1082.15 1434.85 1086.1 1464.25 1085.37 1466.21 C 1084.78 1467.79 1082.25 1468.88 1081.16 1470.26 L 1084.19 1470.7 C 1087.92 1473.53 1084.24 1486.02 1083.5 1490.25 C 1078.03 1521.27 1079.38 1565.14 1087.62 1595.71 L 1086.28 1596.3 C 1078.56 1599.76 1068.59 1599.37 1061.75 1603.12 C 1061.77 1605.18 1061.88 1607.17 1061.27 1609.17 C 1060.86 1610.49 1060.98 1610.15 1059.64 1610.9 C 1044.53 1619.3 1010.13 1618.69 993.898 1613.69 C 979.311 1609.21 986.668 1607.14 983.132 1600.26 C 975.051 1597.88 969.253 1603.07 961.691 1604.94 C 955.596 1606.45 947.715 1606.33 941.427 1606.47 C 932.468 1606.66 905.474 1606.71 899.642 1598.93 C 898.124 1596.9 898.069 1595.42 898.273 1592.95 C 899.138 1582.53 902.821 1571.62 903.82 1560.51 C 906.671 1528.82 907.207 1495.34 904.202 1463.65 C 903.766 1459.05 903.408 1454.33 902.485 1449.8 C 901.056 1442.79 895.907 1432.42 897.264 1425.41 C 898.675 1424.16 899.449 1423.34 900.194 1421.6 C 899.249 1420.54 897.872 1419.29 897.552 1417.84 C 896.569 1413.42 900.662 1389.27 900.925 1382.45 C 902.112 1351.66 897.496 1296.19 891.277 1265.55 C 889.257 1255.6 884.138 1246.5 882.409 1236.49 C 883.551 1233.52 884.632 1232.91 887.031 1230.9 C 885.727 1229.59 882.894 1228.21 882.285 1226.56 C 880.589 1221.98 882.413 1211.97 882.502 1206.75 C 882.698 1195.17 881.549 1183.76 879.695 1172.34 C 853.405 1144.76 826.56 1116.19 797.521 1091.47 C 793.64 1097.05 789.262 1101.67 784.1 1106.06 C 748.313 1136.48 698.931 1154.73 654.133 1166.9 C 647.05 1168.82 635.737 1173.22 628.438 1172.21 C 626.484 1171.95 626.734 1171.59 625.664 1170.12 L 626.067 1168.04 C 632.949 1160.46 642.131 1154.45 650.459 1148.54 C 689.031 1121.17 744.832 1091 792.245 1085.58 L 780.762 1074.18 C 771.179 1082.33 758.478 1083.49 746.373 1084.67 C 682.199 1090.89 614.72 1082.63 552.521 1066.54 C 546.684 1065.03 532.396 1063.04 528.072 1058.81 C 526.937 1057.7 527.382 1057.7 527.473 1055.87 C 528.248 1054.89 528.224 1054.79 529.423 1053.95 C 534.568 1050.35 547.198 1050.06 553.516 1049.22 C 599.861 1043.07 649.903 1043.91 696.207 1050.25 C 715.187 1052.85 733.891 1057.52 752.897 1059.65 C 700.134 1029.47 654.795 992.135 614.503 946.505 C 608.081 939.233 598.872 930.708 594.499 922.282 C 594.502 919.517 594.456 919.489 596.214 917.369 C 597.253 917.164 597.822 916.98 598.965 917.142 C 606.232 918.17 617.093 925.837 623.627 929.411 C 677.326 958.779 723.992 995.232 766.066 1039.46 C 749.405 1007.24 739.853 968.781 734.981 932.872 C 733.672 923.228 729.321 898.043 734.981 890.575 L 737.335 891.282 C 743.865 897.081 747.81 907.041 751.684 914.799 C 767.807 947.082 780.617 980.032 787.886 1015.47 C 790.776 1029.56 796.508 1054.29 788.064 1067.13 C 801.898 1079.75 817.924 1090.82 832.39 1102.84 C 846.354 1114.44 859.855 1128.15 874.6 1138.52 C 870.154 1114.29 866.636 1088.35 859.117 1064.84 C 857.367 1059.37 847.284 1042.4 847.615 1038.11 C 847.906 1034.35 851.947 1034.57 852.773 1031.2 C 850.924 1029.78 848.906 1029.16 846.735 1028.41 C 843.743 1021.96 845.473 1009.25 844.381 1001.67 C 841.458 981.396 835.785 961.038 830.698 941.192 C 825.182 919.676 819.1 897.033 811.244 876.256 C 806.652 864.112 796.605 851.351 794.381 838.831 C 799.508 831.299 818.22 826.356 826.99 823.373 C 834.671 820.76 853.538 813.342 860.961 817.013 C 865.094 828.281 863.953 842.814 866.811 854.89 C 876.061 893.965 887.043 933.768 899.389 971.966 C 902.035 980.149 914.607 1007.51 913.578 1013.38 C 913.049 1016.4 912.317 1016.88 910.104 1018.76 L 917.79 1020 C 918.044 1032.27 918.297 1044.61 919.59 1056.82 C 923.437 1093.17 938.817 1188.65 953.569 1217.95 C 953.656 1218.09 953.773 1218.23 953.828 1218.39 C 954.368 1219.98 954.647 1221.46 955.36 1223.02 L 955.002 1221.47 L 956.285 1220.88 C 956.353 1216.88 956.751 1212.91 957.104 1208.93 C 957.312 1172.27 955.281 1134.21 951.301 1097.79 C 950.035 1086.2 944.341 1071.1 944.52 1060.5 C 944.851 1060.24 945.188 1059.98 945.513 1059.71 C 946.971 1058.51 946.441 1059.02 947.611 1057.38 C 947.028 1056.71 944.956 1054.8 944.754 1054.09 C 943.237 1048.76 945.408 1037.55 945.643 1031.68 C 946.214 1017.42 945.226 1002.8 944.386 988.567 C 942.003 948.2 939.182 907.263 933.975 867.16 C 932.409 855.097 927.736 843.437 926.474 831.501 C 925.335 820.733 927.552 809.712 926.857 798.895 C 924.859 767.816 921.157 736.645 917.134 705.77 C 914.937 688.902 913.235 671.478 909.222 654.943 C 907.013 645.841 903.713 637.337 900.673 628.513 z"/>
<path transform="translate(0,0)" fill="rgb(245,254,242)" d="M 957.104 1208.93 C 959.035 1225.71 957.827 1244.82 956.582 1261.74 C 956.106 1268.21 954.921 1275.02 954.906 1281.47 C 954.901 1283.58 955.099 1284.37 956.2 1286.1 L 955.586 1287 C 954.934 1286.82 954.415 1286.33 953.852 1285.95 C 949.969 1265.96 953.178 1245.98 953.534 1225.87 L 948.121 1223.27 C 949.802 1221.34 951.691 1219.68 953.569 1217.95 C 953.656 1218.09 953.773 1218.23 953.828 1218.39 C 954.368 1219.98 954.647 1221.46 955.36 1223.02 L 955.002 1221.47 L 956.285 1220.88 C 956.353 1216.88 956.751 1212.91 957.104 1208.93 z"/>
<path transform="translate(0,0)" fill="rgb(255,255,255)" d="M 981.474 1060.43 C 986.458 1060.24 991.448 1060.53 996.429 1060.72 C 992.231 1087.58 994.13 1116.61 995.556 1143.63 C 996.039 1152.78 997.382 1162.44 997.07 1171.53 C 996.876 1177.15 992.423 1187.18 994.116 1192.18 C 994.558 1193.48 996.557 1194.55 997.77 1195.13 C 1009.6 1200.78 1047.47 1200.79 1060.16 1196.46 C 1062.48 1195.67 1064.42 1194.77 1065.57 1192.49 C 1064.16 1189.35 1063.48 1186.87 1063.62 1183.43 C 1064.07 1172.7 1067.06 1161.31 1068.8 1150.69 C 1073.08 1124.64 1077.18 1099.35 1076.96 1072.88 C 1091.32 1074.9 1105.35 1076.63 1119.14 1081.36 C 1102.79 1115.28 1091.69 1209.83 1088.21 1249.76 C 1087.45 1261.17 1087.39 1272.62 1088.04 1284.04 L 1056.62 1280.77 C 1056.91 1264.46 1056.84 1247.72 1059.29 1231.58 C 1060.74 1222.06 1064.7 1212.7 1064.94 1203.07 C 1063.04 1201.06 1061.99 1200.06 1059.21 1199.55 C 1049.63 1197.78 1038.01 1200.92 1028.2 1201.02 C 1019.79 1201.1 1000.62 1194.67 993.696 1199.31 C 993.382 1210.72 995.876 1222.16 996.798 1233.53 C 997.963 1247.9 997.987 1262.4 998.122 1276.81 C 986.476 1278.46 974.483 1278.82 962.738 1279 C 963.424 1267.82 964.721 1256.74 965.077 1245.52 C 966.49 1200.98 964.58 1104.42 952.24 1064.35 C 961.836 1061.97 971.634 1061.06 981.474 1060.43 z"/>
<path transform="translate(0,0)" fill="rgb(255,255,255)" d="M 1025.58 955.465 C 1038.06 955.05 1050.2 956.296 1062.2 959.697 C 1051.36 993.839 1053.13 1040.43 1052.4 1076.33 C 1051.81 1105.41 1050.58 1135.26 1052.97 1164.26 C 1053.71 1173.17 1055.17 1181.57 1057.33 1190.24 C 1050.99 1190.87 1044.6 1191.18 1038.24 1191.61 C 1025.44 1192.1 1013.29 1190.77 1000.74 1188.29 C 1012.11 1155.34 1013.97 1031.32 1011.64 990.671 C 1010.99 979.411 1009.63 968.539 1007.23 957.519 C 1013.31 956.354 1019.43 955.949 1025.58 955.465 z"/>
<path transform="translate(0,0)" fill="rgb(255,255,255)" d="M 1000.18 1205.54 C 1019.91 1208.08 1037.65 1208.54 1057.39 1206.76 C 1045.62 1244.72 1046.12 1337.45 1049.8 1377.94 C 1050.61 1386.8 1052.57 1395.71 1054.07 1404.5 L 1052.79 1406.14 C 1032.55 1409.04 1015.14 1409.24 995.218 1404.27 C 1007.36 1360.22 1010.14 1251.34 1000.18 1205.54 z"/>
<path transform="translate(0,0)" fill="rgb(255,255,255)" d="M 995.599 1421.57 C 1016.55 1425.32 1033.75 1424.74 1054.76 1422.29 C 1043.28 1461.87 1045.6 1526.68 1048.95 1568.22 C 1049.71 1577.62 1054.6 1598.17 1053.29 1605.4 L 1050.75 1606.6 C 1030.12 1611.4 1011.3 1610.14 990.955 1604.94 C 1004.24 1566.57 1005.75 1461.71 995.599 1421.57 z"/>
<path transform="translate(0,0)" fill="rgb(255,255,255)" d="M 850.004 823.12 C 851.725 822.939 853.01 822.947 854.708 823.289 C 858.229 833.459 857.203 846.785 859.715 857.61 C 864.892 879.914 871.104 902.017 877.212 924.079 C 885.402 953.66 892.94 983.867 907.615 1011.01 C 891.241 1014.68 874.946 1018.39 858.71 1022.64 L 854.491 1023.02 C 854.102 1022.67 853.564 1022.44 853.324 1021.97 C 852.211 1019.81 852.663 1009.25 852.388 1006.3 C 851.47 996.457 849.615 986.705 847.598 977.035 C 839.566 938.528 822.873 872.52 801.713 840.587 C 817.366 833.448 833.654 828.378 850.004 823.12 z"/>
<path transform="translate(0,0)" fill="rgb(255,255,255)" d="M 909.981 1026.49 C 911.325 1028.61 912.145 1063.07 913.031 1069.21 C 919.758 1115.77 928.383 1171.69 944.041 1215.67 C 926.164 1218.1 908.211 1221 890.229 1222.47 C 888.831 1219.95 889.466 1184.23 888.539 1177.23 C 882.932 1134.87 874.949 1077.41 856.046 1038.97 C 873.196 1033.58 892.085 1028.33 909.981 1026.49 z"/>
<path transform="translate(0,0)" fill="rgb(255,255,255)" d="M 933.054 1231.61 L 947.062 1230.28 C 940.985 1275.58 949.806 1367.96 962.233 1412.48 C 947.521 1413.44 932.798 1414.2 918.066 1414.77 L 905.123 1414.8 C 913.29 1374.21 906.269 1275.1 890.329 1238.02 C 904.504 1235.39 918.769 1233.53 933.054 1231.61 z"/>
<path transform="translate(0,0)" fill="rgb(255,255,255)" d="M 958.663 1427.5 L 961.412 1427.38 C 961.739 1427.98 957.688 1460.26 957.563 1464.8 C 956.525 1502.58 957.096 1559.92 967.532 1595.52 C 949.889 1599.88 932.878 1600.01 914.984 1597.02 L 905.598 1594.79 C 916.015 1554.08 918.022 1468.86 904.696 1429.66 C 922.405 1427.87 940.821 1428.33 958.663 1427.5 z"/>
<path transform="translate(0,0)" fill="rgb(255,255,255)" d="M 962.395 1293.02 C 974.446 1293.82 986.023 1293.41 998.029 1292.27 C 996.489 1318.32 996.207 1344.43 993.647 1370.42 C 992.543 1381.63 989.15 1392.75 988.251 1403.73 C 988.032 1406.41 988.14 1407.05 989.558 1409.19 C 1005.85 1417.93 1037.8 1417.45 1055.24 1412.27 C 1058.08 1411.42 1059.89 1410.69 1061.66 1408.21 C 1061.08 1397.78 1058.15 1387.64 1057.42 1377.18 C 1055.53 1349.92 1055.95 1322.32 1056.02 1295 C 1066.37 1296.31 1076.76 1297.3 1087.18 1297.97 C 1074.85 1337.31 1070.38 1421.65 1077.56 1462.41 C 1069.74 1462.9 1062 1463.08 1054.17 1463.04 C 1056.37 1456.87 1061.91 1422.28 1060.93 1416.33 C 1056.11 1413.14 1030.34 1417.97 1022.8 1417.82 C 1012.82 1417.63 1003.73 1414.94 993.997 1414.12 C 991.358 1413.9 990.182 1414.43 988.191 1416.05 C 987.266 1420.53 993.396 1454.17 994.282 1463.12 C 984.693 1463.16 975.181 1462.41 965.626 1461.71 C 966.295 1449.82 968.769 1438.03 969.485 1426.13 C 970.049 1416.75 969.294 1407.23 969.372 1397.82 C 969.658 1363.58 971.833 1326.31 962.395 1293.02 z"/>
<path transform="translate(0,0)" fill="rgb(255,255,255)" d="M 955.69 829.385 C 962.713 828.409 970.259 828.779 977.365 828.656 C 974.465 869.043 979.434 909.296 982.907 949.505 C 985.692 981.757 986.97 1014.6 994.832 1046.1 C 987.531 1045.92 980.362 1045.83 973.075 1046.38 C 966.037 1047.23 959.01 1048.18 951.998 1049.24 C 955.756 1018.27 952.203 985.739 950.074 954.741 C 947.934 923.596 946.155 891.764 940.883 860.987 C 939.272 851.578 936.904 842.563 934.117 833.439 C 941.359 831.754 948.3 830.324 955.69 829.385 z"/>
<path transform="translate(0,0)" fill="rgb(255,255,255)" d="M 1204.11 661.402 C 1217.71 664.929 1231.18 670.605 1242.86 678.448 C 1218.58 714.913 1178.19 822.306 1171.84 865.551 C 1170.12 865.645 1141.08 854.776 1134.3 853.301 C 1150.02 828.135 1158.57 796.78 1168.82 768.899 C 1181.7 733.85 1198.29 698.471 1204.11 661.402 z"/>
<path transform="translate(0,0)" fill="rgb(255,255,255)" d="M 936.066 625.363 C 941.663 624.603 947.473 624.799 953.118 624.698 C 952.443 633.936 951.984 643.052 952.383 652.321 C 953.285 673.281 956.36 694.356 958.745 715.204 C 962.468 747.747 963.798 783.985 975.612 814.656 C 965.733 814.515 955.904 814.63 946.144 816.291 L 933.864 818.951 C 936.925 782.304 924.271 663.016 909.518 631.465 C 918.148 628.394 927.022 626.662 936.066 625.363 z"/>
<path transform="translate(0,0)" fill="rgb(255,255,255)" d="M 1129.56 867.345 C 1143.07 868.951 1156.24 874.209 1168.71 879.394 C 1164.87 887.051 1161.11 894.605 1158.2 902.674 C 1144.8 939.844 1122 1028.44 1120.82 1066.79 C 1107.57 1062.54 1094.41 1060.49 1080.68 1058.65 C 1093.6 1032.36 1099.17 1001.55 1106.56 973.264 C 1115.49 939.09 1128.07 902.688 1129.56 867.345 z"/>
<path transform="translate(0,0)" fill="rgb(255,255,255)" d="M 595.766 1053.42 C 642.144 1050.02 727.747 1056.52 771.013 1073.71 C 756.386 1077.34 740.74 1077.75 725.751 1078.75 C 677.905 1079.89 631.65 1075.99 584.756 1066.26 C 572.46 1063.7 559.544 1061.37 547.82 1056.79 C 563.787 1055.46 579.77 1054.34 595.766 1053.42 z"/>
<path transform="translate(0,0)" fill="rgb(255,255,255)" d="M 611.365 931.858 C 620.704 935.446 629.913 941.727 638.494 946.881 C 681.611 972.772 721.919 1003.33 756.339 1040.08 C 762.396 1046.55 769.483 1053.22 773.454 1061.2 C 763.934 1058.24 754.903 1052.57 746.314 1047.55 C 697.152 1018.82 647.468 975.767 611.365 931.858 z"/>
<path transform="translate(0,0)" fill="rgb(255,255,255)" d="M 964.907 1477.67 C 974.744 1479.52 984.543 1479.93 994.527 1479.9 C 993.388 1515.96 992.869 1551.36 987.679 1587.16 L 987.113 1590.43 C 983.53 1592.69 977.954 1591.34 973.833 1590.91 C 963.397 1554.59 969.959 1514.9 964.907 1477.67 z"/>
<path transform="translate(0,0)" fill="rgb(255,255,255)" d="M 1073.94 1478.45 L 1076.2 1478.54 C 1078.4 1484.19 1073.06 1504.48 1072.89 1512.5 C 1072.33 1539.07 1072.97 1566.05 1078.84 1592.05 C 1073.49 1593.2 1068.1 1593.89 1062.68 1594.62 C 1060.54 1594.83 1061.65 1594.99 1059.41 1593.81 C 1053.76 1556.05 1054.86 1517.11 1054.97 1479.04 C 1061.29 1479.04 1067.62 1478.71 1073.94 1478.45 z"/>
<path transform="translate(0,0)" fill="rgb(255,255,255)" d="M 740.123 909.795 C 740.351 910.006 740.596 910.2 740.806 910.43 C 745.401 915.472 748.579 924.581 751.514 930.889 C 769.241 968.997 785.969 1014.29 785.582 1056.62 C 784.465 1056.23 784.593 1056.41 783.704 1055.48 C 759.931 1030.59 741.692 945.131 740.123 909.795 z"/>
<path transform="translate(0,0)" fill="rgb(255,255,255)" d="M 783.581 1094.26 L 784.62 1094.27 L 785.024 1095.35 C 757.426 1125.09 687.203 1151.02 647.417 1160.64 L 646.51 1160.59 L 646.907 1159.26 C 658.518 1151.94 669.663 1143.91 681.402 1136.79 C 712.223 1118.1 748.211 1101.62 783.581 1094.26 z"/>
<path transform="translate(0,0)" fill="rgb(245,254,242)" d="M 814.868 1097.91 C 816.736 1098.77 818.305 1099.71 819.948 1100.95 C 829.819 1108.37 871.629 1142.88 876.648 1150.83 C 878.457 1153.7 878.726 1158.18 879.203 1161.49 C 873.673 1158.52 853.698 1135.44 847.63 1129.42 C 836.866 1118.75 825.471 1108.74 814.868 1097.91 z"/>
<path transform="translate(0,0)" fill="rgb(90,122,90)" d="M 1313.6 751.98 C 1316.17 751.856 1318.61 751.887 1321.11 752.573 C 1332.69 755.747 1359.72 771.47 1365.05 781.906 C 1368.75 789.159 1358.52 797.6 1354.05 802.85 C 1332.37 828.323 1300.73 889.944 1288.52 922.757 C 1298.03 921.994 1307.56 919.8 1317 918.35 C 1327.31 916.766 1337.95 915.952 1348.05 913.292 C 1348.34 912.468 1348.66 911.652 1348.88 910.808 C 1349.34 909.117 1349.43 907.53 1350.31 905.935 C 1361.24 886.171 1409.24 858.13 1430.93 850.054 C 1434.17 848.849 1438.45 847.048 1441.81 848.588 L 1441.73 850.743 C 1430.13 869.011 1408.13 884.72 1391.03 897.582 C 1425.64 890.942 1458.04 887.622 1493.31 888.375 C 1501.27 888.544 1510.63 887.921 1518.18 890.65 C 1519.75 892.297 1519.85 892.309 1520.05 894.559 C 1519.68 894.907 1519.33 895.269 1518.95 895.602 C 1513.64 900.262 1501.82 902.074 1494.95 903.913 C 1453.09 915.112 1409.34 923.789 1365.8 920.968 C 1393.23 940.275 1416.92 961.63 1438.34 987.55 C 1443.26 993.491 1448.86 999.688 1452.54 1006.48 C 1453.95 1009.08 1455.11 1011.51 1454.32 1014.39 C 1451.83 1014.98 1450.59 1014.36 1448.38 1013.21 C 1417.11 996.939 1361.93 954.77 1351.31 921.818 C 1336.29 925.413 1292.54 935.487 1280.83 942.538 C 1280.8 943.01 1280.77 943.482 1280.73 943.954 C 1280.68 944.573 1280.6 945.19 1280.56 945.81 C 1280.23 951.535 1267.68 965.945 1264.01 972.565 C 1255.44 987.995 1248.89 1004.99 1242.33 1021.35 C 1235.64 1038.02 1228.73 1055.84 1224.5 1073.3 C 1221.89 1084.1 1221.14 1095.49 1217.9 1106.11 C 1215.07 1115.4 1208.66 1123.55 1205.4 1132.78 C 1193.28 1167.06 1181.98 1212.93 1179.67 1249.21 C 1197.18 1237.76 1215.7 1227.72 1232.95 1215.91 C 1235.81 1213.96 1241.39 1210.88 1242.04 1207.38 L 1239.61 1209.34 C 1237.14 1211.36 1235.7 1212.48 1232.57 1213.3 C 1230.35 1212.67 1229.76 1212.68 1228.73 1210.38 C 1220.5 1192.01 1244.67 1116.81 1255.22 1098.04 C 1256.75 1095.31 1257.98 1093.29 1261.06 1092.5 C 1261.93 1093.33 1262.03 1093.32 1262.69 1094.56 C 1264.85 1098.62 1264.09 1107 1263.91 1111.57 C 1262.72 1141.76 1257.15 1170.27 1245.93 1198.4 C 1248.5 1194.97 1251.14 1191.59 1253.84 1188.27 C 1278.27 1158.82 1312.04 1132.02 1344.51 1112.02 C 1349.43 1108.99 1357.49 1103.42 1363.41 1103.26 C 1365.37 1103.21 1364.6 1103.11 1366.32 1104.63 C 1366.18 1107.93 1364.9 1109.22 1363.16 1111.97 C 1348.12 1132.45 1330.53 1152.37 1311.59 1169.34 C 1302.93 1177.1 1293.47 1183.89 1284.81 1191.65 C 1322.79 1181.34 1358.67 1176.38 1398.11 1176.59 C 1403 1176.62 1409.36 1176.43 1412.94 1180.04 C 1412.3 1181.9 1412.51 1181.96 1410.8 1183.33 C 1403.87 1188.89 1392.07 1191.88 1383.68 1194.82 C 1339.56 1210.26 1296.37 1219.07 1249.41 1213.92 C 1278.67 1223.23 1303.7 1230.87 1330.3 1247.2 C 1336.42 1250.96 1343.01 1254.65 1348.54 1259.25 C 1351.01 1261.3 1352.66 1262.84 1353 1266.08 C 1352.76 1266.27 1352.56 1266.5 1352.29 1266.66 C 1349.77 1268.15 1345.69 1267.44 1342.91 1267.06 C 1315.55 1263.3 1258.68 1245.05 1241.89 1223.12 C 1220.19 1235.56 1200.92 1253.3 1180.33 1267.58 C 1164.47 1307.77 1158.18 1358.57 1158.45 1401.86 C 1158.52 1413.93 1160.74 1425.9 1160.41 1437.99 C 1160.12 1448.44 1155.11 1458.91 1154.06 1469.48 C 1149.73 1511.4 1151.87 1553.74 1160.41 1595.02 C 1151.17 1598.91 1142.1 1600.56 1132.1 1601.15 C 1120.71 1601.82 1100.91 1602.96 1091.95 1594.91 C 1088.15 1588.15 1094.67 1567.84 1095.35 1559.6 C 1097.89 1528.9 1099.7 1496.6 1098.84 1465.81 C 1098.53 1454.83 1094.22 1444.08 1094.4 1433.12 C 1095.68 1432.13 1096.29 1431.49 1097.33 1430.16 C 1096.93 1429.4 1096.32 1428.31 1096.01 1427.53 C 1095.98 1427.46 1095.06 1424.84 1095.06 1424.64 C 1095.1 1421.77 1102.62 1394.09 1103.69 1387.96 C 1109.09 1357.08 1113.25 1324.87 1115.38 1293.59 C 1115.92 1285.69 1113.72 1262.43 1116.15 1256.84 C 1117.91 1255.99 1119.02 1255.66 1120.22 1254.06 C 1118.35 1252.1 1117.12 1251.12 1117.72 1248.33 C 1119.63 1239.48 1125.16 1230.94 1127.85 1222.12 C 1133.86 1202.43 1138.5 1182.18 1143.46 1162.21 C 1148.78 1140.76 1156.3 1117.57 1156.52 1095.41 C 1156.54 1093.38 1156.38 1085.68 1157.87 1084.71 C 1159.67 1083.54 1160.55 1084.53 1162.43 1082.65 C 1161.53 1080.74 1159.96 1078.17 1160.81 1076.03 C 1163.27 1069.91 1167.7 1063.73 1170.87 1057.88 C 1174.81 1050.64 1178.04 1043.06 1181.31 1035.5 C 1193.5 1007.33 1206.48 977.908 1216.14 948.767 C 1218.98 940.228 1219.39 930.979 1222.09 922.514 C 1223.08 919.407 1224.97 919.138 1227.66 917.77 C 1227.88 915.571 1227.96 916.465 1227.47 914.253 C 1227.36 913.727 1227.22 913.206 1227.09 912.682 C 1230.95 904.53 1238.65 898.682 1243.16 890.858 C 1258.25 864.198 1273.01 837.347 1287.42 810.313 C 1292.98 799.98 1298.48 789.801 1302.98 778.945 C 1306.58 770.268 1308.55 759.798 1313.6 751.98 z"/>
<path transform="translate(0,0)" fill="rgb(255,255,255)" d="M 1102.07 1436.95 C 1118.69 1436.58 1136.08 1438.99 1152.7 1440.21 C 1142.78 1473.11 1142.43 1525.24 1146.18 1559.52 C 1147.25 1569.31 1151.89 1580.79 1151.03 1590.42 L 1148.74 1591.57 C 1131.12 1594.6 1115.02 1594.24 1097.42 1591.48 C 1107.32 1551.32 1110.34 1477.11 1102.07 1436.95 z"/>
<path transform="translate(0,0)" fill="rgb(255,255,255)" d="M 1317.51 761.838 C 1331.39 769.551 1344.46 778.116 1357.42 787.264 C 1332.65 810.766 1305.25 863.934 1291.03 895.064 C 1288.06 901.554 1279.91 930.356 1276.6 933.406 C 1263.41 925.703 1249.5 919.182 1235.62 912.844 C 1257.96 887.423 1308.08 793.647 1317.51 761.838 z"/>
<path transform="translate(0,0)" fill="rgb(255,255,255)" d="M 1122.95 1262.13 C 1138.83 1264.36 1155.43 1267.49 1170.89 1271.76 C 1154.61 1307.81 1146.16 1386.86 1152.85 1426.45 C 1136.53 1425.88 1119.51 1425.15 1103.33 1423 C 1115.94 1385.11 1125.38 1302.48 1122.95 1262.13 z"/>
<path transform="translate(0,0)" fill="rgb(255,255,255)" d="M 1164.09 1090.52 C 1176.62 1092.71 1198.96 1100.43 1210.35 1106.38 C 1187.31 1138.75 1174.08 1218.58 1172.05 1258.41 C 1156.94 1254.1 1141 1251.5 1125.59 1248.35 C 1138.96 1223.88 1157.97 1144 1162.56 1113.91 C 1163.76 1106.08 1164.09 1098.43 1164.09 1090.52 z"/>
<path transform="translate(0,0)" fill="rgb(255,255,255)" d="M 1229.42 925.885 C 1244.11 931.762 1258.81 938.651 1272.28 946.944 C 1250.12 970.966 1227.93 1031.38 1218.69 1063.13 C 1216.01 1072.33 1216.55 1083.68 1212.68 1092.24 C 1197.94 1086.94 1183.24 1081.4 1168.25 1076.83 C 1188.03 1050.12 1223.11 959.034 1229.42 925.885 z"/>
<path transform="translate(0,0)" fill="rgb(255,255,255)" d="M 1376.77 1183.42 L 1396.07 1182.75 C 1370.59 1196.87 1311.22 1207.6 1281.75 1209.28 C 1274.1 1209.97 1266.75 1209.64 1259.12 1208.89 C 1298.22 1194.04 1334.94 1185.76 1376.77 1183.42 z"/>
<path transform="translate(0,0)" fill="rgb(255,255,255)" d="M 1349.97 1116.05 L 1350.55 1117.33 C 1323.91 1149.55 1289.36 1186.62 1251.21 1204.94 C 1250.42 1204.14 1250.82 1204.73 1250.72 1202.87 C 1273.91 1170.06 1316.45 1138.2 1349.97 1116.05 z"/>
<path transform="translate(0,0)" fill="rgb(255,255,255)" d="M 1457.12 895.421 C 1471.14 894.248 1485.8 894.823 1499.88 895.081 C 1471.19 906.126 1437.31 910.57 1406.83 913.596 C 1393.02 915.637 1377.74 915.273 1363.91 914.168 C 1393.67 901.948 1425.26 897.727 1457.12 895.421 z"/>
<path transform="translate(0,0)" fill="rgb(255,255,255)" d="M 1359.49 925.692 C 1364.52 927.411 1369.19 931.554 1373.44 934.685 C 1398.5 953.149 1420.21 975.247 1439.78 999.378 C 1439.38 999.285 1438.97 999.225 1438.58 999.1 C 1433.62 997.516 1428.3 993.266 1424.01 990.31 C 1399.73 973.582 1374.26 951.422 1359.49 925.692 z"/>
<path transform="translate(0,0)" fill="rgb(255,255,255)" d="M 1256.46 1112.7 C 1256.56 1113.14 1256.67 1113.57 1256.75 1114.01 C 1260.1 1132.89 1246.05 1190.04 1234.51 1205.33 C 1228.96 1184.82 1247.74 1133.87 1256.46 1112.7 z"/>
<path transform="translate(0,0)" fill="rgb(245,254,242)" d="M 1249.89 1221.93 C 1279.63 1228.67 1310.65 1240.16 1335.54 1258.26 C 1309.19 1254.79 1269.88 1239.94 1249.89 1221.93 z"/>
<path transform="translate(0,0)" fill="rgb(245,254,242)" d="M 1420.74 861.921 L 1421.94 862.007 L 1422.2 863.05 C 1408.09 880.339 1379.36 899.428 1359.07 908.058 C 1358.48 907.926 1357.98 907.501 1357.45 907.189 C 1372.75 887.677 1399.1 873.454 1420.74 861.921 z"/>
<path transform="translate(0,0)" fill="rgb(90,122,90)" d="M 1009.57 458.765 C 1025.54 451.389 1056.02 450.969 1072.41 456.888 C 1074.51 457.644 1077.68 459.237 1078.62 461.393 C 1079.88 464.277 1073.15 501.955 1072.78 509.541 C 1071.33 538.978 1071.04 568.401 1070.43 597.861 C 1069.89 623.482 1068.71 650.046 1070.67 675.607 C 1080.81 662.366 1089.53 648.003 1099.37 634.504 C 1097.71 633.452 1096.38 632.585 1095.38 630.819 C 1090.33 621.972 1095.38 595.827 1097.34 586.176 C 1099.74 570.805 1104.62 551.176 1111.63 537.147 C 1113.04 534.331 1114.49 531.365 1117.66 530.333 L 1119.32 531.479 C 1123.88 542.862 1119.74 568.393 1118.42 581.184 C 1120.19 584.35 1122.67 584.636 1126.08 585.655 C 1126.55 585.796 1127.02 585.91 1127.5 586.037 C 1140.1 570.965 1170.57 535.727 1187.73 528.757 L 1190.52 528.901 C 1191.68 531.241 1191.35 532.299 1190.43 534.656 C 1187.87 541.238 1182.78 547.803 1178.95 553.72 C 1161.24 581.032 1141.87 604.893 1118.12 627.125 C 1135.7 622.441 1198.74 604.466 1214.45 611.136 C 1214.91 612.364 1215.49 612.883 1214.87 614.181 C 1211.35 621.615 1171.4 633.722 1163.04 635.957 C 1144.55 640.902 1122.09 645.849 1102.97 642.418 C 1096.36 655.116 1089.56 667.76 1083.21 680.594 C 1079.6 687.886 1076.49 695.675 1072.35 702.668 C 1058.37 701.132 1044.29 697.948 1030.18 698.49 C 1023.14 698.761 1013.13 702.732 1006.68 700.273 C 1003.45 695.291 1010.57 668.951 1011 661.085 C 1012.52 630.852 1013.59 600.599 1014.19 570.334 C 1015.01 532.59 1015.88 496.175 1009.57 458.765 z"/>
<path transform="translate(0,0)" fill="rgb(245,254,242)" d="M 1114.12 603.819 C 1115.88 596.352 1117.07 588.734 1118.42 581.184 C 1120.19 584.35 1122.67 584.636 1126.08 585.655 C 1126.55 585.796 1127.02 585.91 1127.5 586.037 C 1123.5 592.158 1118.54 597.97 1114.12 603.819 z"/>
<path transform="translate(0,0)" fill="rgb(255,255,255)" d="M 1029.05 461.349 C 1043.76 460.265 1057.68 461.161 1072.06 464.474 C 1061.63 502.861 1063.38 548.665 1062.54 588.432 C 1062.05 611.826 1060.8 635.67 1061.61 659.042 C 1062.01 670.542 1065.43 681.905 1065.29 693.404 C 1062.34 694.669 1058.37 693.607 1055.24 693.171 C 1040.93 691.75 1027.59 692.017 1013.33 693.345 C 1021.25 655.984 1021.05 616.772 1021.77 578.673 C 1022.19 556.321 1023.08 533.783 1022.61 511.433 C 1022.44 503.119 1021.95 494.815 1021.17 486.536 C 1020.42 479.339 1018.33 470.963 1018.99 463.81 C 1021.86 461.767 1025.64 461.744 1029.05 461.349 z"/>
<path transform="translate(0,0)" fill="rgb(245,254,242)" d="M 1175.75 545.089 L 1176.32 545.458 C 1175.54 549.426 1171.49 554.195 1169.25 557.541 C 1153.4 581.158 1132.83 608.551 1109.91 625.613 C 1109.14 625.187 1109.65 625.545 1108.85 624.063 C 1120.41 600.097 1154.88 562.223 1175.75 545.089 z"/>
<path transform="translate(0,0)" fill="rgb(245,254,242)" d="M 1189.16 617.381 C 1190.87 617.155 1192.57 617.236 1194.29 617.241 L 1194.18 618.023 C 1173.71 629.391 1141.71 635.348 1118.76 637.252 C 1116.79 637.515 1115.44 637.592 1113.5 637.12 C 1122.77 628.412 1173.85 619.433 1189.16 617.381 z"/>
<path transform="translate(0,0)" fill="rgb(245,254,242)" d="M 1115.14 546.283 C 1113.68 572.346 1112.09 602.345 1100.46 626.043 C 1096.96 616.051 1101.37 597.961 1103.17 587.501 C 1106.01 573.517 1109.8 559.537 1115.14 546.283 z"/>
<path transform="translate(0,0)" fill="rgb(90,122,90)" d="M 1032.24 701.415 C 1032.74 701.336 1033.23 701.235 1033.73 701.178 C 1044.65 699.93 1065.42 701.969 1074.22 708.904 C 1075.68 712.381 1068.68 746.793 1068.11 754.413 C 1065.46 790.335 1065.38 827.354 1065.03 863.376 C 1064.87 880.529 1063.43 899.001 1065.17 916.022 C 1066.11 925.232 1071.05 938.973 1068.9 947.8 C 1063.68 951.251 1053.81 948.295 1047.97 947.358 C 1032.43 944.976 1016.66 948.949 1001.5 946.475 C 998.831 943.215 1005.76 913.832 1006.27 907.305 C 1008.28 881.514 1008.61 855.353 1009.35 829.496 C 1010.53 788.103 1012.65 746.945 1004.71 706.088 C 1013.48 702.663 1022.95 702.203 1032.24 701.415 z"/>
<path transform="translate(0,0)" fill="rgb(255,255,255)" d="M 1023.56 709.301 C 1038.41 707.752 1052.79 709.53 1067.4 712.093 C 1057.62 748.822 1058.89 788.093 1057.91 825.875 C 1057.18 853.677 1055.8 882.095 1057.31 909.878 C 1057.89 920.55 1060.14 930.759 1061.12 941.317 L 1059.77 942.276 L 1054.09 941.293 C 1038.58 939.204 1023.18 939.618 1007.62 940.802 C 1016.02 906.176 1015.68 870.244 1016.71 834.82 C 1017.52 806.916 1018.68 778.844 1018.04 750.925 C 1017.75 738.061 1013.03 724.411 1013.8 711.876 C 1016.38 709.888 1020.38 709.773 1023.56 709.301 z"/>
<path transform="translate(0,0)" fill="rgb(90,122,90)" d="M 718.38 644.93 L 716.415 637.382 C 717.237 634.646 719.714 632.821 721.886 631.116 C 731.235 623.773 764.024 605.566 775.961 608.435 C 779.246 609.225 779.707 610.759 781.479 613.337 C 787.682 619.12 788.708 637.742 790.86 646.112 C 792.162 651.174 794.286 656.245 796.061 661.167 C 809.598 697.65 823.712 733.916 838.398 769.952 C 843.662 782.774 853.129 794.375 857.442 807.435 C 856.586 810.364 854.962 811.613 852.289 813.05 C 841.934 818.619 828.366 820.638 817.112 824.462 C 811.615 826.329 806.438 829.313 800.902 830.958 C 798.317 831.726 796.321 832.193 793.613 831.663 C 792.246 830.424 791.721 829.379 791.283 827.63 C 790.17 823.189 790.274 818.489 789.501 813.975 C 787.835 804.239 784.692 794.459 781.621 785.072 C 769.772 748.86 755.592 712.669 738.916 678.417 C 735.796 672.01 732.734 665.631 728.534 659.847 C 725.725 655.976 719.12 649.441 718.38 644.93 z"/>
<path transform="translate(0,0)" fill="rgb(255,255,255)" d="M 776.904 621.085 C 778.705 623.19 786.496 658.218 788.752 664.556 C 795.728 684.158 803.457 703.541 811.028 722.92 C 822.446 752.146 833.336 780.692 850.447 807.187 C 833.521 812.171 816.65 817.281 800.397 824.204 L 799.313 824.437 C 797.936 822.767 792.568 794.512 791.282 790.123 C 779.164 748.767 752.634 678.457 727.229 645.328 C 742.814 635.311 759.887 628.218 776.904 621.085 z"/>
</svg>